# xmcd CD database file
# Copyright (C) 1997 Ti Kan
# 
# Track frame offsets:
#     182
#     17850
#     35807
#     54905
#     71770
#     86872
#     98100
#     112057
#     129217
#     145717
#     161240
#     180307
# 
# Disc length: 2584 seconds
# 
# Revision: 1
# Processed by: cddbd v1.4b41PL1 Copyright (c) Steve Scherf et al.
# Submitted via: DiscPlay 4.0.4
# 
DISCID=a40a160c
DTITLE=Billy Ray Cyrus - It Won't Be The Last
DYEAR=1900
DGENRE=
TTITLE0=She's Not Crying Anymore ( Ela N o Vai Mais Chorar )
TTITLE1=In The Heart Of A Woman
TTITLE2=Talk Some
TTITLE3=Somebody New
TTITLE4=Only Time Will Tell
TTITLE5=Ain't Your Dog No More
TTITLE6=Words By Heart
TTITLE7=It Won't Be The Last
TTITLE8=Throwin' Stones
TTITLE9=Right Face Wrong Time
TTITLE10=Dreamin' In Color, Livin' In Black And White
TTITLE11=When I'm Gone
EXTD=
EXTT0=
EXTT1=
EXTT2=
EXTT3=
EXTT4=
EXTT5=
EXTT6=
EXTT7=
EXTT8=
EXTT9=
EXTT10=
EXTT11=
PLAYORDER=
